<mxfile host="app.diagrams.net" modified="2023-05-23T06:26:57.676Z" agent="Mozilla/5.0 (Macintosh; Intel Mac OS X 10_15_7) AppleWebKit/537.36 (KHTML, like Gecko) Chrome/105.0.0.0 Safari/537.36  SberBrowser/3.1.0.0" etag="Pq7IE2NGEAINMhgEXN-7" version="21.2.9" type="github">
  <diagram name="Страница 1" id="ZXPdNz_G-g0Ub4xCmDcr">
    <mxGraphModel dx="1306" dy="689" grid="1" gridSize="10" guides="1" tooltips="1" connect="1" arrows="1" fold="1" page="1" pageScale="1" pageWidth="827" pageHeight="1169" math="0" shadow="0">
      <root>
        <mxCell id="0" />
        <mxCell id="1" parent="0" />
        <mxCell id="0wzTIoAmBEgUYSC911df-1" value="UI StartManager" style="rounded=0;whiteSpace=wrap;html=1;" parent="1" vertex="1">
          <mxGeometry x="40" y="200" width="120" height="60" as="geometry" />
        </mxCell>
        <mxCell id="0wzTIoAmBEgUYSC911df-11" value="" style="edgeStyle=orthogonalEdgeStyle;rounded=0;orthogonalLoop=1;jettySize=auto;html=1;" parent="1" source="0wzTIoAmBEgUYSC911df-2" target="0wzTIoAmBEgUYSC911df-3" edge="1">
          <mxGeometry relative="1" as="geometry" />
        </mxCell>
        <mxCell id="0wzTIoAmBEgUYSC911df-19" value="" style="edgeStyle=orthogonalEdgeStyle;rounded=0;orthogonalLoop=1;jettySize=auto;html=1;" parent="1" source="0wzTIoAmBEgUYSC911df-2" target="0wzTIoAmBEgUYSC911df-18" edge="1">
          <mxGeometry relative="1" as="geometry" />
        </mxCell>
        <mxCell id="0wzTIoAmBEgUYSC911df-2" value="Back&lt;br&gt;StartManager" style="rounded=0;whiteSpace=wrap;html=1;" parent="1" vertex="1">
          <mxGeometry x="354" y="200" width="120" height="60" as="geometry" />
        </mxCell>
        <mxCell id="0wzTIoAmBEgUYSC911df-3" value="Postgree" style="rounded=0;whiteSpace=wrap;html=1;" parent="1" vertex="1">
          <mxGeometry x="520" y="200" width="120" height="60" as="geometry" />
        </mxCell>
        <mxCell id="0wzTIoAmBEgUYSC911df-4" value="UI Engine" style="rounded=0;whiteSpace=wrap;html=1;" parent="1" vertex="1">
          <mxGeometry x="40" y="300" width="120" height="60" as="geometry" />
        </mxCell>
        <mxCell id="0wzTIoAmBEgUYSC911df-5" value="Back&lt;br&gt;Engine" style="rounded=0;whiteSpace=wrap;html=1;" parent="1" vertex="1">
          <mxGeometry x="354" y="300" width="120" height="60" as="geometry" />
        </mxCell>
        <mxCell id="0wzTIoAmBEgUYSC911df-6" value="inmemory DB" style="rounded=0;whiteSpace=wrap;html=1;" parent="1" vertex="1">
          <mxGeometry x="520" y="300" width="120" height="60" as="geometry" />
        </mxCell>
        <mxCell id="0wzTIoAmBEgUYSC911df-7" value="Back&lt;br&gt;Engine" style="rounded=0;whiteSpace=wrap;html=1;" parent="1" vertex="1">
          <mxGeometry x="360" y="310" width="120" height="60" as="geometry" />
        </mxCell>
        <mxCell id="0wzTIoAmBEgUYSC911df-8" value="Back&lt;br&gt;Engine" style="rounded=0;whiteSpace=wrap;html=1;" parent="1" vertex="1">
          <mxGeometry x="370" y="320" width="120" height="60" as="geometry" />
        </mxCell>
        <mxCell id="0wzTIoAmBEgUYSC911df-15" value="" style="endArrow=classic;html=1;rounded=0;exitX=1;exitY=0.5;exitDx=0;exitDy=0;entryX=0;entryY=0.5;entryDx=0;entryDy=0;" parent="1" source="0wzTIoAmBEgUYSC911df-8" target="0wzTIoAmBEgUYSC911df-6" edge="1">
          <mxGeometry width="50" height="50" relative="1" as="geometry">
            <mxPoint x="310" y="340" as="sourcePoint" />
            <mxPoint x="380" y="360" as="targetPoint" />
          </mxGeometry>
        </mxCell>
        <mxCell id="0wzTIoAmBEgUYSC911df-16" value="" style="endArrow=classic;html=1;rounded=0;exitX=1;exitY=0.25;exitDx=0;exitDy=0;entryX=0.058;entryY=1.025;entryDx=0;entryDy=0;entryPerimeter=0;" parent="1" source="0wzTIoAmBEgUYSC911df-8" target="0wzTIoAmBEgUYSC911df-3" edge="1">
          <mxGeometry width="50" height="50" relative="1" as="geometry">
            <mxPoint x="500" y="360" as="sourcePoint" />
            <mxPoint x="530" y="340" as="targetPoint" />
          </mxGeometry>
        </mxCell>
        <mxCell id="0wzTIoAmBEgUYSC911df-18" value="Back&lt;br&gt;MessageManage" style="rounded=0;whiteSpace=wrap;html=1;" parent="1" vertex="1">
          <mxGeometry x="354" y="80" width="120" height="60" as="geometry" />
        </mxCell>
        <mxCell id="0wzTIoAmBEgUYSC911df-20" value="Kafka?" style="text;html=1;strokeColor=none;fillColor=none;align=center;verticalAlign=middle;whiteSpace=wrap;rounded=0;" parent="1" vertex="1">
          <mxGeometry x="390" y="150" width="60" height="30" as="geometry" />
        </mxCell>
        <mxCell id="0wzTIoAmBEgUYSC911df-21" value="logs" style="rounded=0;whiteSpace=wrap;html=1;" parent="1" vertex="1">
          <mxGeometry x="530" y="50" width="120" height="60" as="geometry" />
        </mxCell>
        <mxCell id="0wzTIoAmBEgUYSC911df-22" value="" style="endArrow=classic;html=1;rounded=0;entryX=0;entryY=1;entryDx=0;entryDy=0;exitX=1;exitY=0;exitDx=0;exitDy=0;dashed=1;dashPattern=12 12;" parent="1" source="0wzTIoAmBEgUYSC911df-2" target="0wzTIoAmBEgUYSC911df-21" edge="1">
          <mxGeometry width="50" height="50" relative="1" as="geometry">
            <mxPoint x="474" y="190" as="sourcePoint" />
            <mxPoint x="524" y="140" as="targetPoint" />
            <Array as="points">
              <mxPoint x="490" y="170" />
            </Array>
          </mxGeometry>
        </mxCell>
        <mxCell id="0wzTIoAmBEgUYSC911df-23" value="" style="endArrow=classic;html=1;rounded=0;entryX=0;entryY=0.5;entryDx=0;entryDy=0;exitX=1;exitY=0.5;exitDx=0;exitDy=0;dashed=1;dashPattern=12 12;" parent="1" source="0wzTIoAmBEgUYSC911df-18" target="0wzTIoAmBEgUYSC911df-21" edge="1">
          <mxGeometry width="50" height="50" relative="1" as="geometry">
            <mxPoint x="484" y="210" as="sourcePoint" />
            <mxPoint x="540" y="120" as="targetPoint" />
            <Array as="points">
              <mxPoint x="500" y="90" />
            </Array>
          </mxGeometry>
        </mxCell>
        <mxCell id="0wzTIoAmBEgUYSC911df-24" value="" style="endArrow=classic;html=1;rounded=0;entryX=0.25;entryY=1;entryDx=0;entryDy=0;exitX=1;exitY=0;exitDx=0;exitDy=0;dashed=1;dashPattern=12 12;" parent="1" source="0wzTIoAmBEgUYSC911df-8" target="0wzTIoAmBEgUYSC911df-21" edge="1">
          <mxGeometry width="50" height="50" relative="1" as="geometry">
            <mxPoint x="484" y="120" as="sourcePoint" />
            <mxPoint x="540" y="90" as="targetPoint" />
            <Array as="points">
              <mxPoint x="510" y="180" />
            </Array>
          </mxGeometry>
        </mxCell>
        <mxCell id="0wzTIoAmBEgUYSC911df-26" value="nginx balancer" style="rounded=0;whiteSpace=wrap;html=1;" parent="1" vertex="1">
          <mxGeometry x="190" y="200" width="120" height="190" as="geometry" />
        </mxCell>
        <mxCell id="0wzTIoAmBEgUYSC911df-32" value="" style="endArrow=classic;html=1;rounded=0;exitX=1;exitY=0.5;exitDx=0;exitDy=0;" parent="1" source="0wzTIoAmBEgUYSC911df-1" edge="1">
          <mxGeometry width="50" height="50" relative="1" as="geometry">
            <mxPoint x="390" y="310" as="sourcePoint" />
            <mxPoint x="350" y="230" as="targetPoint" />
          </mxGeometry>
        </mxCell>
        <mxCell id="0wzTIoAmBEgUYSC911df-33" value="" style="endArrow=classic;html=1;rounded=0;exitX=1;exitY=0.5;exitDx=0;exitDy=0;entryX=0;entryY=0.5;entryDx=0;entryDy=0;" parent="1" source="0wzTIoAmBEgUYSC911df-4" target="0wzTIoAmBEgUYSC911df-8" edge="1">
          <mxGeometry width="50" height="50" relative="1" as="geometry">
            <mxPoint x="390" y="310" as="sourcePoint" />
            <mxPoint x="440" y="260" as="targetPoint" />
          </mxGeometry>
        </mxCell>
        <mxCell id="0wzTIoAmBEgUYSC911df-34" value="" style="endArrow=classic;html=1;rounded=0;entryX=1;entryY=1;entryDx=0;entryDy=0;exitX=0;exitY=0.75;exitDx=0;exitDy=0;" parent="1" source="0wzTIoAmBEgUYSC911df-2" target="0wzTIoAmBEgUYSC911df-1" edge="1">
          <mxGeometry width="50" height="50" relative="1" as="geometry">
            <mxPoint x="390" y="310" as="sourcePoint" />
            <mxPoint x="440" y="260" as="targetPoint" />
            <Array as="points">
              <mxPoint x="260" y="260" />
            </Array>
          </mxGeometry>
        </mxCell>
        <mxCell id="0wzTIoAmBEgUYSC911df-35" value="" style="endArrow=classic;html=1;rounded=0;" parent="1" target="0wzTIoAmBEgUYSC911df-4" edge="1">
          <mxGeometry width="50" height="50" relative="1" as="geometry">
            <mxPoint x="160" y="260" as="sourcePoint" />
            <mxPoint x="440" y="260" as="targetPoint" />
          </mxGeometry>
        </mxCell>
        <mxCell id="OCKMa_QTTcZ8pl-r7HH0-2" value="" style="edgeStyle=orthogonalEdgeStyle;rounded=0;orthogonalLoop=1;jettySize=auto;html=1;" edge="1" parent="1" source="OCKMa_QTTcZ8pl-r7HH0-1" target="0wzTIoAmBEgUYSC911df-26">
          <mxGeometry relative="1" as="geometry" />
        </mxCell>
        <mxCell id="OCKMa_QTTcZ8pl-r7HH0-1" value="OAuth" style="rounded=0;whiteSpace=wrap;html=1;" vertex="1" parent="1">
          <mxGeometry x="190" y="40" width="120" height="60" as="geometry" />
        </mxCell>
        <mxCell id="OCKMa_QTTcZ8pl-r7HH0-3" value="token" style="text;html=1;strokeColor=none;fillColor=none;align=center;verticalAlign=middle;whiteSpace=wrap;rounded=0;" vertex="1" parent="1">
          <mxGeometry x="240" y="100" width="60" height="30" as="geometry" />
        </mxCell>
        <mxCell id="OCKMa_QTTcZ8pl-r7HH0-4" value="Kafka?" style="text;html=1;strokeColor=none;fillColor=none;align=center;verticalAlign=middle;whiteSpace=wrap;rounded=0;" vertex="1" parent="1">
          <mxGeometry x="490" y="130" width="60" height="30" as="geometry" />
        </mxCell>
      </root>
    </mxGraphModel>
  </diagram>
</mxfile>
